<svg width="166" height="166" viewBox="0 0 166 166" fill="none" xmlns="http://www.w3.org/2000/svg">
<circle cx="83" cy="83" r="82" stroke="black" stroke-width="2"/>
<circle cx="83" cy="83" r="69" stroke="black" stroke-width="2"/>
<path d="M44.1699 70.2681L30.0749 64.387L33.6013 55.9355L35.1154 56.5672L32.3012 63.3119L37.0637 65.2991L39.6138 59.1876L41.1279 59.8193L38.5779 65.9308L44.8821 68.5613L44.1699 70.2681Z" fill="black"/>
<path d="M50.4835 58.0451L49.17 59.4713L41.7347 44.9999L43.0279 43.5956L58.0613 49.8167L56.7479 51.243L44.199 45.8907L44.1182 45.9785L50.4835 58.0451ZM46.5801 53.477L51.8744 47.7281L53.0813 48.8395L47.7869 54.5884L46.5801 53.477Z" fill="black"/>
<path d="M54.5925 34.4801L64.3552 43.9953L64.5156 43.916L62.8818 30.3816L64.6199 29.5222L66.362 45.6985L64.6506 46.5446L52.8545 35.3395L54.5925 34.4801Z" fill="black"/>
<path d="M86.5957 34.2072C86.7287 35.8124 86.5538 37.2238 86.071 38.4411C85.5882 39.6584 84.8676 40.626 83.9094 41.3439C82.9512 42.0618 81.8231 42.4746 80.525 42.5821C79.2269 42.6896 78.0462 42.4682 76.9829 41.9177C75.9196 41.3673 75.0497 40.5314 74.3731 39.4101C73.6966 38.2889 73.2918 36.9256 73.1588 35.3203C73.0258 33.715 73.2008 32.3037 73.6836 31.0864C74.1664 29.8691 74.8869 28.9014 75.8451 28.1835C76.8033 27.4656 77.9315 27.0529 79.2296 26.9453C80.5277 26.8378 81.7084 27.0593 82.7717 27.6097C83.835 28.1602 84.7049 28.996 85.3814 30.1173C86.058 31.2386 86.4628 32.6019 86.5957 34.2072ZM84.8121 34.3549C84.7029 33.037 84.3903 31.9429 83.8742 31.0728C83.3631 30.2022 82.7142 29.565 81.9274 29.1613C81.1457 28.7571 80.294 28.5932 79.3724 28.6695C78.4509 28.7459 77.6353 29.0479 76.9257 29.5756C76.2211 30.1029 75.6859 30.8382 75.3201 31.7814C74.9592 32.7242 74.8333 33.8546 74.9425 35.1725C75.0517 36.4905 75.3618 37.5847 75.8729 38.4553C76.389 39.3255 77.0379 39.9626 77.8197 40.3668C78.6064 40.7705 79.4606 40.9342 80.3821 40.8579C81.3037 40.7816 82.1168 40.4797 82.8214 39.9524C83.531 39.4247 84.0662 38.6895 84.4271 37.7466C84.7929 36.8034 84.9213 35.6728 84.8121 34.3549Z" fill="black"/>
<path d="M89.9143 42.8367L94.2039 28.1787L99.1566 29.6281C100.302 29.9633 101.185 30.434 101.805 31.0403C102.427 31.6418 102.815 32.333 102.97 33.1139C103.124 33.8948 103.075 34.717 102.823 35.5806C102.57 36.4443 102.169 37.1584 101.621 37.7231C101.072 38.2878 100.377 38.6542 99.5353 38.8223C98.6949 38.9856 97.7069 38.901 96.5713 38.5687L92.5633 37.3958L93.0325 35.7926L96.9832 36.9487C97.7658 37.1777 98.4291 37.2475 98.9733 37.1581C99.5222 37.0701 99.9655 36.8476 100.303 36.4906C100.647 36.1301 100.905 35.6565 101.076 35.0696C101.248 34.4827 101.288 33.9376 101.197 33.4344C101.106 32.9312 100.855 32.4898 100.443 32.1102C100.032 31.7258 99.4307 31.4178 98.6386 31.186L95.5181 30.2728L91.6893 43.3561L89.9143 42.8367ZM98.7408 38.2712L100.421 45.9114L98.3598 45.3082L96.7368 37.6847L98.7408 38.2712Z" fill="black"/>
<path d="M112.904 36.1635L104.789 49.1017L103.222 48.119L111.337 35.1808L112.904 36.1635Z" fill="black"/>
<path d="M119.076 42.8105L120.293 41.7102L127.975 50.2069L126.758 51.3072L123.537 47.7448L113.425 56.8872L112.185 55.5153L122.297 46.3729L119.076 42.8105Z" fill="black"/>
<path d="M118.077 63.669L132.172 57.7879L135.721 66.2944L134.207 66.9262L131.37 60.1265L126.607 62.1136L129.261 68.4729L127.746 69.1047L125.093 62.7454L120.303 64.7441L123.186 71.6539L121.672 72.2857L118.077 63.669Z" fill="black"/>
<path d="M120.83 95.8105L134.925 101.692L131.399 110.143L129.885 109.511L132.699 102.767L127.936 100.78L125.386 106.891L123.872 106.259L126.422 100.148L120.118 97.5174L120.83 95.8105Z" fill="black"/>
<path d="M114.516 108.034L115.83 106.607L123.265 121.079L121.972 122.483L106.939 116.262L108.252 114.836L120.801 120.188L120.882 120.1L114.516 108.034ZM118.42 112.602L113.126 118.351L111.919 117.239L117.213 111.49L118.42 112.602Z" fill="black"/>
<path d="M110.407 131.599L100.645 122.084L100.484 122.163L102.118 135.697L100.38 136.557L98.638 120.38L100.349 119.534L112.146 130.739L110.407 131.599Z" fill="black"/>
<path d="M78.4043 131.871C78.2713 130.266 78.4462 128.855 78.929 127.638C79.4118 126.42 80.1324 125.453 81.0906 124.735C82.0488 124.017 83.1769 123.604 84.475 123.497C85.7731 123.389 86.9538 123.61 88.0171 124.161C89.0804 124.711 89.9503 125.547 90.6269 126.668C91.3034 127.79 91.7082 129.153 91.8412 130.758C91.9742 132.364 91.7992 133.775 91.3164 134.992C90.8336 136.21 90.1131 137.177 89.1549 137.895C88.1967 138.613 87.0685 139.026 85.7704 139.133C84.4723 139.241 83.2916 139.019 82.2283 138.469C81.165 137.918 80.2951 137.083 79.6186 135.961C78.942 134.84 78.5372 133.477 78.4043 131.871ZM80.1879 131.724C80.2971 133.042 80.6097 134.136 81.1258 135.006C81.6369 135.876 82.2858 136.514 83.0726 136.917C83.8543 137.322 84.706 137.485 85.6276 137.409C86.5491 137.333 87.3647 137.031 88.0743 136.503C88.7789 135.976 89.3141 135.24 89.6799 134.297C90.0408 133.354 90.1667 132.224 90.0575 130.906C89.9483 129.588 89.6382 128.494 89.1271 127.623C88.611 126.753 87.9621 126.116 87.1803 125.712C86.3936 125.308 85.5394 125.144 84.6179 125.221C83.6963 125.297 82.8832 125.599 82.1786 126.126C81.469 126.654 80.9338 127.389 80.5729 128.332C80.2071 129.275 80.0787 130.406 80.1879 131.724Z" fill="black"/>
<path d="M75.0857 123.242L70.7961 137.9L65.8434 136.451C64.6982 136.116 63.8155 135.645 63.1952 135.039C62.5735 134.437 62.1852 133.746 62.0304 132.965C61.8756 132.184 61.9245 131.362 62.1773 130.498C62.43 129.635 62.8307 128.92 63.3793 128.356C63.9278 127.791 64.623 127.425 65.4647 127.257C66.3051 127.093 67.2931 127.178 68.4287 127.51L72.4367 128.683L71.9675 130.286L68.0168 129.13C67.2342 128.901 66.5709 128.831 66.0267 128.921C65.4778 129.009 65.0345 129.231 64.6969 129.588C64.3531 129.949 64.0954 130.422 63.9236 131.009C63.7519 131.596 63.7115 132.141 63.8026 132.644C63.8936 133.148 64.1451 133.589 64.5572 133.969C64.968 134.353 65.5693 134.661 66.3614 134.893L69.4819 135.806L73.3107 122.723L75.0857 123.242ZM66.2592 127.808L64.5789 120.167L66.6402 120.771L68.2632 128.394L66.2592 127.808Z" fill="black"/>
<path d="M52.0959 129.915L60.2112 116.977L61.778 117.96L53.6627 130.898L52.0959 129.915Z" fill="black"/>
<path d="M45.9241 123.268L44.7071 124.368L37.0252 115.872L38.2421 114.771L41.463 118.334L51.5749 109.191L52.8153 110.563L42.7033 119.706L45.9241 123.268Z" fill="black"/>
<path d="M46.9233 102.41L32.8283 108.291L29.279 99.7842L30.7931 99.1524L33.6303 105.952L38.3928 103.965L35.7394 97.6057L37.2535 96.9739L39.9069 103.333L44.697 101.335L41.8139 94.4247L43.328 93.7929L46.9233 102.41Z" fill="black"/>
<path d="M83.5 103.5C83.1405 103.5 82.7857 103.419 82.4621 103.263C81.6332 102.859 62.125 93.2187 62.125 77.3751C62.125 75.0266 62.8214 72.7309 64.1261 70.7781C65.4308 68.8254 67.2852 67.3034 69.4549 66.4045C71.6245 65.5056 74.012 65.2703 76.3154 65.7282C78.6188 66.1861 80.7347 67.3167 82.3956 68.9771L83.5 70.0815L84.6044 68.9771C86.2653 67.3167 88.3812 66.1861 90.6846 65.7282C92.988 65.2703 95.3755 65.5056 97.5451 66.4045C99.7148 67.3034 101.569 68.8254 102.874 70.7781C104.179 72.7309 104.875 75.0266 104.875 77.3751C104.875 93.1593 85.3715 102.854 84.5402 103.263C84.216 103.42 83.8603 103.501 83.5 103.5Z" fill="black"/>
</svg>
