<?xml version="1.0" standalone="no"?>
<!DOCTYPE svg PUBLIC "-//W3C//DTD SVG 20010904//EN"
 "http://www.w3.org/TR/2001/REC-SVG-20010904/DTD/svg10.dtd">
<svg version="1.0" xmlns="http://www.w3.org/2000/svg"
 width="240.000000pt" height="240.000000pt" viewBox="0 0 240.000000 240.000000"
 preserveAspectRatio="xMidYMid meet">
<metadata>
Created by potrace 1.14, written by Peter Selinger 2001-2017
</metadata>
<g transform="translate(0.000000,240.000000) scale(0.100000,-0.100000)"
fill="#000000" stroke="none">
<path d="M2125 2309 c-27 -5 -74 -11 -104 -14 -30 -3 -66 -7 -80 -9 -14 -3
-51 -8 -81 -11 -30 -4 -62 -9 -71 -10 -8 -2 -40 -6 -70 -9 -30 -3 -63 -8 -75
-10 -11 -2 -45 -7 -75 -10 -88 -10 -211 -26 -319 -41 -31 -5 -97 -13 -147 -20
-21 -2 -56 -7 -78 -9 -22 -3 -60 -8 -85 -11 -140 -17 -175 -30 -182 -67 -2
-13 -4 -266 -3 -564 l0 -540 -50 11 c-52 12 -145 13 -205 1 -150 -29 -304
-179 -346 -339 -17 -65 -12 -207 10 -267 106 -288 446 -403 696 -236 53 35
121 105 141 144 7 15 18 34 25 42 6 8 19 45 28 82 14 59 16 145 16 676 0 570
1 610 18 625 17 16 36 21 122 31 38 4 119 15 325 41 22 2 49 6 60 9 11 2 47 7
80 10 33 4 71 9 85 11 14 2 50 7 81 9 98 9 94 21 96 -299 1 -252 0 -275 -15
-271 -27 8 -115 20 -137 19 -156 -6 -277 -67 -368 -187 -66 -85 -88 -151 -91
-271 -6 -179 95 -346 255 -423 83 -41 106 -45 214 -45 75 0 102 5 160 28 140
56 238 165 281 311 14 49 16 145 16 816 0 727 -1 761 -19 778 -25 25 -50 29
-108 19z"/>
</g>
</svg>
